<svg xmlns="http://www.w3.org/2000/svg" xmlns:xlink="http://www.w3.org/1999/xlink" width="1920" zoomAndPan="magnify" viewBox="0 0 1440 809.999993" height="1080" preserveAspectRatio="xMidYMid meet" version="1.0"><defs><clipPath id="1da1b00f14"><path d="M 590.398438 275.398438 L 642.238281 275.398438 L 642.238281 534.601562 L 590.398438 534.601562 Z M 590.398438 275.398438 " clip-rule="nonzero"/></clipPath><clipPath id="92738eb23e"><path d="M 616.320312 275.398438 C 623.195312 275.398438 629.785156 278.128906 634.648438 282.992188 C 639.507812 287.855469 642.238281 294.445312 642.238281 301.320312 L 642.238281 508.679688 C 642.238281 515.554688 639.507812 522.144531 634.648438 527.007812 C 629.785156 531.871094 623.195312 534.601562 616.320312 534.601562 C 609.445312 534.601562 602.855469 531.871094 597.992188 527.007812 C 593.128906 522.144531 590.398438 515.554688 590.398438 508.679688 L 590.398438 301.320312 C 590.398438 294.445312 593.128906 287.855469 597.992188 282.992188 C 602.855469 278.128906 609.445312 275.398438 616.320312 275.398438 Z M 616.320312 275.398438 " clip-rule="nonzero"/></clipPath><clipPath id="f60e09667a"><path d="M 797.761719 275.398438 L 849.601562 275.398438 L 849.601562 534.601562 L 797.761719 534.601562 Z M 797.761719 275.398438 " clip-rule="nonzero"/></clipPath><clipPath id="b5a86ad091"><path d="M 823.679688 275.398438 C 830.554688 275.398438 837.144531 278.128906 842.007812 282.992188 C 846.871094 287.855469 849.601562 294.445312 849.601562 301.320312 L 849.601562 508.679688 C 849.601562 515.554688 846.871094 522.144531 842.007812 527.007812 C 837.144531 531.871094 830.554688 534.601562 823.679688 534.601562 C 816.804688 534.601562 810.214844 531.871094 805.351562 527.007812 C 800.492188 522.144531 797.761719 515.554688 797.761719 508.679688 L 797.761719 301.320312 C 797.761719 294.445312 800.492188 287.855469 805.351562 282.992188 C 810.214844 278.128906 816.804688 275.398438 823.679688 275.398438 Z M 823.679688 275.398438 " clip-rule="nonzero"/></clipPath><clipPath id="bfa23a752c"><path d="M 652.175781 337.175781 L 787.824219 337.175781 L 787.824219 472.824219 L 652.175781 472.824219 Z M 652.175781 337.175781 " clip-rule="nonzero"/></clipPath><clipPath id="3201023a74"><path d="M 642.238281 363.894531 L 678.894531 327.238281 L 797.761719 446.105469 L 761.105469 482.761719 Z M 642.238281 363.894531 " clip-rule="nonzero"/></clipPath><clipPath id="dc172e480b"><path d="M 660.570312 345.566406 C 665.429688 340.707031 672.023438 337.976562 678.894531 337.976562 C 685.769531 337.976562 692.367188 340.707031 697.226562 345.566406 L 779.433594 427.773438 C 784.292969 432.632812 787.023438 439.230469 787.023438 446.105469 C 787.023438 452.980469 784.292969 459.570312 779.433594 464.429688 C 774.570312 469.292969 767.980469 472.023438 761.105469 472.023438 C 754.230469 472.023438 747.636719 469.292969 742.777344 464.429688 L 660.570312 382.226562 C 655.710938 377.363281 652.976562 370.769531 652.976562 363.894531 C 652.976562 357.019531 655.710938 350.429688 660.570312 345.566406 Z M 660.570312 345.566406 " clip-rule="nonzero"/></clipPath></defs><rect x="-144" width="1728" fill="#ffffff" y="-80.999999" height="971.999992" fill-opacity="1"/><rect x="-144" width="1728" fill="#ffffff" y="-80.999999" height="971.999992" fill-opacity="1"/><g clip-path="url(#1da1b00f14)"><g clip-path="url(#92738eb23e)"><path fill="#3b82f6" d="M 590.398438 275.398438 L 642.238281 275.398438 L 642.238281 534.601562 L 590.398438 534.601562 Z M 590.398438 275.398438 " fill-opacity="1" fill-rule="nonzero"/></g></g><g clip-path="url(#f60e09667a)"><g clip-path="url(#b5a86ad091)"><path fill="#3b82f6" d="M 797.761719 275.398438 L 849.601562 275.398438 L 849.601562 534.601562 L 797.761719 534.601562 Z M 797.761719 275.398438 " fill-opacity="1" fill-rule="nonzero"/></g></g><g clip-path="url(#bfa23a752c)"><g clip-path="url(#3201023a74)"><g clip-path="url(#dc172e480b)"><path fill="#3b82f6" d="M 642.238281 363.894531 L 678.894531 327.238281 L 797.761719 446.105469 L 761.105469 482.761719 Z M 642.238281 363.894531 " fill-opacity="1" fill-rule="nonzero"/></g></g></g></svg>