<svg xmlns="http://www.w3.org/2000/svg" xmlns:xlink="http://www.w3.org/1999/xlink" width="500" zoomAndPan="magnify" viewBox="0 0 375 374.999991" height="500" preserveAspectRatio="xMidYMid meet" version="1.0"><defs><clipPath id="b3e8d84a0d"><path d="M 37.5 37.5 L 97.5 37.5 L 97.5 337.5 L 37.5 337.5 Z M 37.5 37.5 " clip-rule="nonzero"/></clipPath><clipPath id="6e102bb4e6"><path d="M 67.5 37.5 C 75.457031 37.5 83.085938 40.660156 88.714844 46.285156 C 94.339844 51.914062 97.5 59.542969 97.5 67.5 L 97.5 307.5 C 97.5 315.457031 94.339844 323.085938 88.714844 328.714844 C 83.085938 334.339844 75.457031 337.5 67.5 337.5 C 59.542969 337.5 51.914062 334.339844 46.285156 328.714844 C 40.660156 323.085938 37.5 315.457031 37.5 307.5 L 37.5 67.5 C 37.5 59.542969 40.660156 51.914062 46.285156 46.285156 C 51.914062 40.660156 59.542969 37.5 67.5 37.5 Z M 67.5 37.5 " clip-rule="nonzero"/></clipPath><clipPath id="7f996a8aa1"><path d="M 277.5 37.5 L 337.5 37.5 L 337.5 337.5 L 277.5 337.5 Z M 277.5 37.5 " clip-rule="nonzero"/></clipPath><clipPath id="a2951ceec1"><path d="M 307.5 37.5 C 315.457031 37.5 323.085938 40.660156 328.714844 46.285156 C 334.339844 51.914062 337.5 59.542969 337.5 67.5 L 337.5 307.5 C 337.5 315.457031 334.339844 323.085938 328.714844 328.714844 C 323.085938 334.339844 315.457031 337.5 307.5 337.5 C 299.542969 337.5 291.914062 334.339844 286.285156 328.714844 C 280.660156 323.085938 277.5 315.457031 277.5 307.5 L 277.5 67.5 C 277.5 59.542969 280.660156 51.914062 286.285156 46.285156 C 291.914062 40.660156 299.542969 37.5 307.5 37.5 Z M 307.5 37.5 " clip-rule="nonzero"/></clipPath><clipPath id="106141b243"><path d="M 109 109 L 266 109 L 266 266 L 109 266 Z M 109 109 " clip-rule="nonzero"/></clipPath><clipPath id="63745000bc"><path d="M 97.5 139.925781 L 139.925781 97.5 L 277.5 235.074219 L 235.074219 277.5 Z M 97.5 139.925781 " clip-rule="nonzero"/></clipPath><clipPath id="35a678d8f0"><path d="M 118.714844 118.710938 C 124.339844 113.085938 131.972656 109.925781 139.925781 109.925781 C 147.882812 109.925781 155.515625 113.085938 161.140625 118.710938 L 256.289062 213.859375 C 261.914062 219.484375 265.074219 227.117188 265.074219 235.074219 C 265.074219 243.03125 261.914062 250.660156 256.289062 256.285156 C 250.660156 261.914062 243.03125 265.074219 235.074219 265.074219 C 227.117188 265.074219 219.488281 261.914062 213.863281 256.285156 L 118.714844 161.140625 C 113.089844 155.511719 109.925781 147.882812 109.925781 139.925781 C 109.925781 131.96875 113.089844 124.339844 118.714844 118.710938 Z M 118.714844 118.710938 " clip-rule="nonzero"/></clipPath></defs><g clip-path="url(#b3e8d84a0d)"><g clip-path="url(#6e102bb4e6)"><path fill="#3b82f6" d="M 37.5 37.5 L 97.5 37.5 L 97.5 337.5 L 37.5 337.5 Z M 37.5 37.5 " fill-opacity="1" fill-rule="nonzero"/></g></g><g clip-path="url(#7f996a8aa1)"><g clip-path="url(#a2951ceec1)"><path fill="#3b82f6" d="M 277.5 37.5 L 337.5 37.5 L 337.5 337.5 L 277.5 337.5 Z M 277.5 37.5 " fill-opacity="1" fill-rule="nonzero"/></g></g><g clip-path="url(#106141b243)"><g clip-path="url(#63745000bc)"><g clip-path="url(#35a678d8f0)"><path fill="#3b82f6" d="M 97.5 139.925781 L 139.925781 97.5 L 277.5 235.074219 L 235.074219 277.5 Z M 97.5 139.925781 " fill-opacity="1" fill-rule="nonzero"/></g></g></g></svg>